<?xml version="1.0" encoding="UTF-8"?>
<svg id="Layer_1" xmlns="http://www.w3.org/2000/svg" xmlns:xlink="http://www.w3.org/1999/xlink" version="1.1" viewBox="0 0 1236.75 273.75">
  <!-- Generator: Adobe Illustrator 30.3.0, SVG Export Plug-In . SVG Version: 2.1.3 Build 182)  -->
  <defs>
    <style>
      .st0 {
        fill: none;
      }

      .st1 {
        fill: #fdfdfe;
      }

      .st2 {
        fill: #021056;
      }

      .st3 {
        fill: #4d60f7;
      }

      .st4 {
        clip-path: url(#clippath);
      }
    </style>
    <clipPath id="clippath">
      <rect class="st0" width="1236.75" height="273.75"/>
    </clipPath>
  </defs>
  <g class="st4">
    <g>
      <path class="st1" d="M0,273.38V0h1236.75v273.75H0v-.38ZM251.71,140.14l.88-.54h78.87s0,71.09,0,71.09h39.81s0-133.21,0-133.21l-39.71,9.32-.16,19.38-78.79.48-.33-.9-.3-68.19h-39.53s-.48,66.49-.48,66.49c-6.22-23.48-19-41.58-39.58-53.07-15.38-8.77-32.47-13.16-50.51-13.21l-82.24-.25-.15,173.18,83.41-.05c10.45,0,19.99-2.03,29.84-4.61,14.95-4.82,28.52-12.32,39.2-23.72,9.81-10.39,14.75-22.12,19.95-36.45l.48,64.84,39.65-.09-.33-70.49ZM356.59,75.8c9.61-3,15.03-12.01,13.84-21.26-1.1-8.59-8.37-15.66-17.72-16.62-5.98-.61-12.12,2.52-15.54,6.53-4.27,5.01-6.19,11.11-4.49,17.32,2.82,10.32,13.33,17.32,23.91,14.02ZM543.84,87.82c-6.79,3.02-13.07,3.49-19.33,1.26-8.06-2.88-12.75-10.07-13.06-18.54-.44-11.9,8.4-21.05,20.32-21.11,6.62-.04,12.45,1.98,17.1,7.02l8.78-8.27c-5.83-6.35-12.93-10.27-21.13-10.26h-9.53c-15.93,1.61-28.36,13.52-29.69,29.54-1.28,15.47,8.03,29.1,23.01,33.35,12.44,3.52,25.72,1.16,36.3-6.08v-25.6s-12.69-.02-12.69-.02l-.08,18.73ZM918.74,74.99v-11.02s-29.41,0-29.41,0l.02-13.82,33.12-.1v-11.51s-47.25.22-47.25.22l-.13,62.57h48.35s-.01-11.33-.01-11.33h-34.1s.04-14.99.04-14.99l29.38-.02ZM977.27,87.81l5.65,13.58,14.77-.12-28-62.6-14.08-.16-18.64,41.93-9.42,20.87h14.41s5.84-13.58,5.84-13.58l29.47.08ZM1050.38,89.93l-31.27.02.02-51.43h-14.13s-.04,62.8-.04,62.8l45.64-.02-.22-11.37ZM1080.76,101.25v-51.03s20.14-.06,20.14-.06v-11.61s-54.65-.01-54.65-.01l.07,11.61,20.19.09v51.12s14.26-.1,14.26-.1ZM1166.66,101.21v-62.64s-13.97-.04-13.97-.04l-.07,25.01-29.16.18-.05-25.19-14.17.07.02,62.7,14.17.02v-25.72s29.23.01,29.23.01v25.75s14-.15,14-.15ZM453.77,89.63c8.97-12.46,8.28-28.83-1.25-40.39-6.21-6.37-14.39-10.27-23.56-10.33l-31.59-.19-.21,62.62,33.17-.33c9.16-.09,17.24-4.63,23.45-11.38ZM485.93,101.2l-.03-62.49-14.18.06-.13,62.57,14.34-.14ZM585,101.22v-62.49s-14.26,0-14.26,0v62.59s14.26-.1,14.26-.1ZM627.67,101.22v-51s20.17-.08,20.17-.08l-.07-11.43-54.49.02.09,11.41,20.18.09v51.11s14.13-.11,14.13-.11ZM700.3,101.44l14.68-.17-6.4-14.22-21.62-48.26h-14.07s-27.93,62.48-27.93,62.48l14.33.07,5.86-13.6,29.47.08,5.68,13.62ZM767.9,89.98l-31.55-.09-.14-51.19-13.96.06v62.57s45.67-.01,45.67-.01l-.03-11.34ZM859.73,101.24l-.18-62.5-14.12-.04-.09,24.99-29.27-.02-.03-24.97-13.64.06-.21,62.54,13.97.03.02-25.74h29.19s.05,25.68.05,25.68l14.32-.03ZM970.68,184.72c2.36-12.74-2.23-25.31-12.86-32.51-11.76-7.96-27.4-8.36-39.68-1.34-11.19,6.4-16.78,18.58-15.44,31.01,1.26,11.76,8.92,22.18,20.63,26.51,20.26,7.5,43.47-2.71,47.35-23.67ZM411.13,209.55v-62.55s-13.94.02-13.94.02l.02,62.77,13.93-.24ZM484.34,209.71v-62.59s-14.17-.16-14.17-.16l-.32,38.26-31.38-38.15-11.76-.05v62.68s13.7.03,13.7.03l.38-38.39,31.77,38.43,11.78-.06ZM526.81,209.55l.03-51.07h20.44s-.01-11.48-.01-11.48h-54.71s-.04,11.43-.04,11.43l20.3.17v51.22s13.99-.27,13.99-.27ZM598.73,183.64l-.03-11.18-29.24-.04.12-14.09,33.24-.05-.04-11.25-47.21-.03v62.77s48.25-.02,48.25-.02l-.03-11.19-34.28-.02-.08-14.84,29.3-.05ZM671.04,209.48l-13.87-19.94c8.19-3.33,12.75-10.24,13.01-18.63.19-6.22-1.31-11.94-5.66-16.53-4.74-4.12-10.84-7.11-17.5-7.16l-31.17-.23v62.78s14.21-.04,14.21-.04l.04-17.54,13.76-.19,12.39,17.83,14.79-.35ZM739.8,209.48v-62.46s-13.95-.02-13.95-.02l-.42,38.04-31.12-37.72-12.06-.12.02,62.58,13.9-.06.35-38.29,31.55,38.21,11.72-.16ZM796.83,196.02l5.52,13.82,14.76-.25-28.01-62.58-14.15.07-27.92,62.68,14.45-.07,5.83-13.79,29.52.11ZM848.34,209.57v-51.06s20.21-.04,20.21-.04l-.02-11.47h-54.31s-.03,11.46-.03,11.46l19.9.07v51.27s14.26-.24,14.26-.24ZM891.07,209.7v-62.7s-14.31,0-14.31,0v62.75s14.31-.06,14.31-.06ZM1040.26,209.54v-62.53s-14.23,0-14.23,0l-.38,37.73-31.16-37.75-11.88.1v62.63s14.15.02,14.15.02l.37-38.17,31.44,38.2,11.7-.22ZM1097.29,196.06l5.54,13.73,14.82-.13-27.97-62.59-14.28-.07-27.89,62.72,14.36.04,5.95-13.89,29.49.18ZM1170.27,198.09l-31.12.04v-51.11s-14.21.01-14.21.01v62.76s45.69-.06,45.69-.06l-.36-11.63Z"/>
      <path class="st2" d="M252.29,105.75h-40.19s-.03,34.34-.03,34.34l39.65.05.33,70.49-39.65.09-.48-64.84c-5.2,14.32-10.14,26.05-19.95,36.45-10.68,11.4-24.25,18.9-39.2,23.72-9.86,2.58-19.39,4.6-29.84,4.61l-83.41.05.15-173.18,82.24.25c18.04.05,35.14,4.45,50.51,13.21,20.57,11.49,33.35,29.59,39.58,53.07l.48-66.48h39.53s.3,68.18.3,68.18ZM159.26,85.87c-10.02-9.81-23.23-15.48-37.58-15.58l-42.79-.3v108.34s43.69-.36,43.69-.36c13.6-.11,26.41-5.51,35.92-14.85,19.83-19.48,19.96-57.12.76-77.26Z"/>
      <polygon class="st2" points="252.6 139.6 252.62 106.65 331.41 106.18 331.57 86.8 371.29 77.48 371.29 210.69 331.47 210.69 331.46 139.6 252.6 139.6"/>
      <polygon class="st2" points="1040.26 209.54 1028.55 209.76 997.12 171.56 996.74 209.73 982.61 209.71 982.6 147.08 994.48 146.99 1025.64 184.74 1026.02 147.01 1040.25 147.01 1040.26 209.54"/>
      <polygon class="st2" points="484.34 209.71 472.56 209.77 440.79 171.34 440.41 209.73 426.7 209.7 426.71 147.02 438.47 147.07 469.85 185.22 470.17 146.96 484.35 147.12 484.34 209.71"/>
      <polygon class="st2" points="739.8 209.48 728.09 209.63 696.53 171.42 696.18 209.71 682.27 209.77 682.25 147.19 694.32 147.31 725.43 185.03 725.85 147 739.79 147.01 739.8 209.48"/>
      <path class="st2" d="M453.77,89.63c-6.21,6.75-14.29,11.29-23.45,11.38l-33.17.33.21-62.62,31.59.19c9.18.06,17.36,3.96,23.56,10.33,9.53,11.55,10.22,27.93,1.25,40.39ZM445.93,70.08c.05-10.57-7.09-19.56-17.79-19.67l-17.01-.18v39.69s17.32-.36,17.32-.36c10.54-1,17.43-8.77,17.48-19.47Z"/>
      <path class="st2" d="M970.68,184.72c-3.88,20.96-27.1,31.17-47.35,23.67-11.71-4.34-19.37-14.75-20.63-26.51-1.34-12.43,4.25-24.61,15.44-31.01,12.28-7.02,27.92-6.62,39.68,1.34,10.63,7.2,15.22,19.77,12.86,32.51ZM938.72,198.82c11.35-.86,18.6-10.2,18.34-21.08-.26-10.91-7.97-19.21-18.73-19.83-12.92-.74-22.2,8.99-21.5,21.64.64,11.57,9.44,20.21,21.88,19.27Z"/>
      <path class="st2" d="M671.04,209.48l-14.79.35-12.39-17.83-13.76.19-.04,17.54-14.21.04v-62.78s31.18.23,31.18.23c6.66.05,12.77,3.04,17.5,7.16,4.35,4.59,5.85,10.31,5.66,16.53-.26,8.4-4.83,15.3-13.01,18.63l13.87,19.94ZM656.08,169.82c.15-6.19-4.02-10.99-10.13-11.11l-15.88-.3-.02,22.57,16.35-.35c5.72-.12,9.54-4.86,9.68-10.8Z"/>
      <polygon class="st2" points="1166.66 101.21 1152.67 101.36 1152.67 75.61 1123.45 75.59 1123.44 101.32 1109.27 101.3 1109.25 38.6 1123.42 38.53 1123.47 63.71 1152.63 63.53 1152.7 38.52 1166.66 38.57 1166.66 101.21"/>
      <polygon class="st2" points="859.73 101.24 845.4 101.27 845.36 75.59 816.17 75.59 816.15 101.33 802.18 101.3 802.39 38.77 816.03 38.71 816.06 63.68 845.33 63.7 845.42 38.7 859.54 38.75 859.73 101.24"/>
      <polygon class="st2" points="918.74 74.99 889.37 75.01 889.33 90 923.43 90 923.45 101.32 875.1 101.33 875.23 38.76 922.47 38.54 922.48 50.05 889.36 50.15 889.33 63.97 918.75 63.97 918.74 74.99"/>
      <polygon class="st2" points="598.73 183.64 569.43 183.69 569.5 198.54 603.78 198.56 603.81 209.74 555.58 209.76 555.56 146.99 602.77 147.02 602.81 158.27 569.57 158.32 569.45 172.42 598.69 172.46 598.73 183.64"/>
      <path class="st2" d="M543.84,87.82l.08-18.73,12.68.02v25.6c-10.58,7.24-23.86,9.61-36.3,6.08-14.98-4.24-24.29-17.87-23.01-33.35,1.33-16.01,13.76-27.93,29.69-29.52h9.53c8.2-.03,15.3,3.89,21.13,10.24l-8.78,8.27c-4.65-5.03-10.48-7.05-17.1-7.02-11.93.07-20.77,9.22-20.32,21.11.32,8.47,5,15.66,13.06,18.54,6.26,2.23,12.54,1.77,19.33-1.26Z"/>
      <path class="st2" d="M796.83,196.02l-29.52-.11-5.83,13.79-14.45.07,27.92-62.68,14.15-.07,28.01,62.58-14.76.25-5.52-13.82ZM792.42,185.45l-10.55-24.82-10.47,24.92,21.02-.1Z"/>
      <path class="st2" d="M977.27,87.81l-29.47-.08-5.84,13.6h-14.41s9.42-20.88,9.42-20.88l18.64-41.93,14.08.16,28,62.6-14.77.12-5.65-13.58ZM972.59,76.99l-10.19-24.23-10.29,24.48,20.48-.25Z"/>
      <path class="st2" d="M700.3,101.44l-5.68-13.62-29.47-.08-5.86,13.6-14.33-.07,27.93-62.47h14.07s21.62,48.25,21.62,48.25l6.4,14.22-14.68.17ZM690.07,77.18l-10.32-24.4-10.33,24.42,20.65-.03Z"/>
      <path class="st2" d="M1097.29,196.06l-29.49-.18-5.95,13.89-14.36-.04,27.89-62.72,14.28.07,27.97,62.59-14.82.13-5.54-13.73ZM1093.01,185.55l-10.63-24.77-10.55,24.86,21.17-.09Z"/>
      <polygon class="st3" points="252.29 105.75 252.62 106.65 252.6 139.6 251.71 140.14 212.06 140.09 212.09 105.76 252.29 105.75"/>
      <polygon class="st2" points="1080.76 101.25 1066.5 101.35 1066.5 50.23 1046.31 50.14 1046.25 38.53 1100.9 38.55 1100.9 50.16 1080.75 50.22 1080.76 101.25"/>
      <polygon class="st2" points="848.34 209.57 834.07 209.81 834.08 158.53 814.19 158.46 814.22 147 868.53 147 868.55 158.47 848.36 158.51 848.34 209.57"/>
      <polygon class="st2" points="627.67 101.22 613.54 101.33 613.54 50.22 593.36 50.13 593.28 38.72 647.77 38.7 647.85 50.13 627.67 50.21 627.67 101.22"/>
      <polygon class="st2" points="526.81 209.55 512.83 209.82 512.82 158.6 492.52 158.43 492.56 147 547.27 147 547.28 158.47 526.84 158.48 526.81 209.55"/>
      <polygon class="st2" points="1170.27 198.09 1170.62 209.71 1124.93 209.78 1124.93 147.02 1139.16 147.01 1139.15 198.12 1170.27 198.09"/>
      <polygon class="st2" points="1050.38 89.93 1050.6 101.3 1004.96 101.33 1005 38.54 1019.13 38.53 1019.11 89.95 1050.38 89.93"/>
      <polygon class="st2" points="767.9 89.98 767.92 101.31 722.25 101.33 722.25 38.76 736.21 38.7 736.34 89.88 767.9 89.98"/>
      <path class="st3" d="M356.59,75.8c-10.58,3.3-21.09-3.7-23.91-14.02-1.7-6.21.22-12.31,4.49-17.32,3.42-4.01,9.56-7.14,15.54-6.53,9.35.95,16.62,8.03,17.72,16.62,1.19,9.25-4.23,18.26-13.84,21.26Z"/>
      <polygon class="st2" points="891.07 209.7 876.75 209.77 876.76 147.01 891.07 147.01 891.07 209.7"/>
      <polygon class="st2" points="585 101.22 570.75 101.32 570.75 38.74 585 38.74 585 101.22"/>
      <polygon class="st2" points="485.93 101.2 471.59 101.34 471.72 38.76 485.9 38.71 485.93 101.2"/>
      <polygon class="st2" points="411.13 209.55 397.2 209.8 397.19 147.02 411.12 147 411.13 209.55"/>
      <path class="st1" d="M159.26,85.87c19.2,20.14,19.07,57.78-.76,77.26-9.5,9.34-22.32,14.73-35.92,14.85l-43.7.36v-108.34s42.8.3,42.8.3c14.34.1,27.55,5.77,37.58,15.58Z"/>
      <path class="st1" d="M445.93,70.08c-.05,10.7-6.95,18.47-17.48,19.47l-17.32.36v-39.69s17.01.18,17.01.18c10.7.12,17.84,9.1,17.79,19.67Z"/>
      <path class="st1" d="M938.72,198.82c-12.45.94-21.24-7.7-21.88-19.27-.7-12.65,8.58-22.38,21.5-21.64,10.76.62,18.46,8.92,18.73,19.83.26,10.88-7,20.22-18.34,21.08Z"/>
      <path class="st1" d="M656.08,169.82c-.14,5.94-3.97,10.68-9.68,10.8l-16.35.35.02-22.57,15.88.3c6.11.12,10.28,4.91,10.13,11.11Z"/>
      <polygon class="st1" points="792.42 185.45 771.4 185.55 781.87 160.63 792.42 185.45"/>
      <polygon class="st1" points="972.59 76.99 952.11 77.24 962.41 52.76 972.59 76.99"/>
      <polygon class="st1" points="690.07 77.18 669.42 77.2 679.75 52.78 690.07 77.18"/>
      <polygon class="st1" points="1093.01 185.55 1071.84 185.65 1082.39 160.78 1093.01 185.55"/>
    </g>
  </g>
</svg>